<svg xmlns:xlink="http://www.w3.org/1999/xlink" xmlns="http://www.w3.org/2000/svg" viewBox="0 0 24 24" color="inherit" class="icon-base__IconBase-sc-1efctcf-0 eelGkG styles__StyledSvgIcon-sc-1dkxs7b-0 fDjHni" width="24"  height="24" ><g fill="#FFFFFF"><path fill="#FFFFFF" d="M6.094 10.23a.868.868 0 0 1-.657.27.868.868 0 0 1-.656-.27.846.846 0 0 1 0-1.26l3.75-3.6a.933.933 0 0 1 1.313 0L12 7.44l4.313-4.14h-1.5c-.563 0-.938-.36-.938-.9s.375-.9.938-.9h3.75c.093 0 .28 0 .375.09.187.09.375.27.468.45.094.09.094.27.094.36V6c0 .54-.375.9-.938.9-.562 0-.937-.36-.937-.9V4.56l-4.969 4.77a.932.932 0 0 1-1.312 0L9.188 7.26l-3.094 2.97zM16 10a1 1 0 0 1 1-1h4a1 1 0 0 1 1 1v11a1 1 0 0 1-1 1h-4a1 1 0 0 1-1-1V10zM10 13a1 1 0 0 0-1 1v7a1 1 0 0 0 1 1h3a1 1 0 0 0 1-1v-7a1 1 0 0 0-1-1h-3zM3 16a1 1 0 0 0-1 1v4a1 1 0 0 0 1 1h3a1 1 0 0 0 1-1v-4a1 1 0 0 0-1-1H3z"></path></g></svg>