<svg xmlns:xlink="http://www.w3.org/1999/xlink" xmlns="http://www.w3.org/2000/svg" viewBox="0 0 24 24" size="24" color="#8B959E" class="icon-base__IconBase-sc-1efctcf-0 bFIjry" width="24"  height="24" ><g fill="#8B959E"><path fill="#8B959E" d="M0 3a2 2 0 0 1 2-2h10a2 2 0 0 1 2 2h-2c-1.48 0-2.773.804-3.465 2H8V4a1 1 0 0 0-2 0v1H3a1 1 0 0 0 0 2h5v3c0 .743-.358 1.57-1 2.353-.642-.783-1-1.61-1-2.353a1 1 0 0 0-2 0c0 1.366.63 2.644 1.525 3.706-.813.573-1.707.982-2.535 1.173-.538.124-.99.569-.99 1.121s.45 1.005.995.916c1.397-.23 2.826-.912 4.005-1.813.317.243.652.47 1 .675V19H2a2 2 0 0 1-2-2V3zM18.333 15L17 11l-1.333 4h2.666z"></path><path fill="#8B959E" d="M10 21a2 2 0 0 0 2 2h10a2 2 0 0 0 2-2V7a2 2 0 0 0-2-2H12a1.999 1.999 0 0 0-2 2v14zm6.72-13h.56a1 1 0 0 1 .948.684l3.356 10.067a.949.949 0 0 1-1.8.6L19 17h-4l-.784 2.351a.949.949 0 1 1-1.8-.6l3.356-10.067A1 1 0 0 1 16.721 8z"></path></g></svg>