<svg xmlns:xlink="http://www.w3.org/1999/xlink" xmlns="http://www.w3.org/2000/svg" viewBox="0 0 16 16" size="24" color="#0666EB" data-testid="warning-icon" class="icon-base__IconBase-sc-1efctcf-0 cjepAl" width="24"  height="24" ><g fill="#0666EB"><path fill="#0666EB" d="M8.962 1.572c-.41-.763-1.514-.763-1.925 0L.13 14.41c-.388.72.14 1.59.963 1.59h13.815c.823 0 1.35-.87.962-1.59L8.962 1.572zM7 13a1 1 0 1 1 2 0 1 1 0 0 1-2 0zm1-2.5a.8.8 0 0 1-.8-.8V6.3a.8.8 0 1 1 1.6 0v3.4a.8.8 0 0 1-.8.8z"></path></g></svg>