<svg xmlns:xlink="http://www.w3.org/1999/xlink" xmlns="http://www.w3.org/2000/svg" viewBox="0 0 24 24" color="inherit" class="icon-base__IconBase-sc-1efctcf-0 eelGkG styles__StyledSvgIcon-sc-1dkxs7b-0 fDjHni" width="24"  height="24" ><g fill="#FFFFFF"><path fill="#FFFFFF" fill-rule="evenodd" d="M17.002 2.506L17.006 5H10a1.5 1.5 0 1 0 0 3h7.01l.004 2.494c.001.832.492 1.049 1.1.482l4.152-3.877a.907.907 0 0 0-.002-1.349l-4.15-3.744c-.615-.556-1.113-.334-1.112.5zm-10.004 11L6.994 16H14a1.5 1.5 0 0 1 0 3H6.99l-.004 2.494c-.001.832-.492 1.049-1.1.482l-4.152-3.877a.907.907 0 0 1 .002-1.349l4.15-3.744c.615-.556 1.113-.335 1.112.5z" clip-rule="evenodd"></path></g></svg>