<svg xmlns:xlink="http://www.w3.org/1999/xlink" xmlns="http://www.w3.org/2000/svg" color="blue" class="styles__StyledSvgIcon-sc-1dkxs7b-0 bpfFNl" width="21" height="12" viewBox="0 0 21 12" stroke- fill="inherit"><path fill-rule="evenodd" clip-rule="evenodd" d="M0.0917969 5.84215C0.0917969 5.42793 0.427583 5.09215 0.841797 5.09215H18.8418C19.256 5.09215 19.5918 5.42793 19.5918 5.84215C19.5918 6.25636 19.256 6.59215 18.8418 6.59215H0.841797C0.427583 6.59215 0.0917969 6.25636 0.0917969 5.84215Z" stroke="#0075EB" fill="#0075EB" stroke-width="0px"></path><path fill-rule="evenodd" clip-rule="evenodd" d="M14.2706 0.315129C14.5635 0.0222357 15.0384 0.0222357 15.3313 0.315129L20.1313 5.11513C20.2719 5.25578 20.351 5.44655 20.351 5.64546C20.351 5.84437 20.2719 6.03514 20.1313 6.17579L15.3313 10.9758C15.0384 11.2687 14.5635 11.2687 14.2706 10.9758C13.9777 10.6829 13.9777 10.208 14.2706 9.91513L18.5403 5.64546L14.2706 1.37579C13.9777 1.0829 13.9777 0.608022 14.2706 0.315129Z" stroke="#0075EB" fill="#0075EB" stroke-width="0px"></path></svg>