<svg xmlns:xlink="http://www.w3.org/1999/xlink" xmlns="http://www.w3.org/2000/svg" viewBox="0 0 24 24" color="inherit" class="icon-base__IconBase-sc-1efctcf-0 eelGkG styles__StyledSvgIcon-sc-1dkxs7b-0 fDjHni" width="24"  height="24" ><g fill="#FFFFFF"><path fill="#FFFFFF" d="M3 7.828a.5.5 0 0 1 .259-.438l8.169-4.5a1.198 1.198 0 0 1 1.144 0l8.17 4.5a.5.5 0 0 1 .258.438V9.5a.5.5 0 0 1-.5.5h-17a.5.5 0 0 1-.5-.5V7.828zM5 12a.5.5 0 0 1 .5-.5h1a.5.5 0 0 1 .5.5v5a.5.5 0 0 1-.5.5h-1A.5.5 0 0 1 5 17v-5zM3 19.5a.5.5 0 0 1 .5-.5h17a.5.5 0 0 1 .5.5v1a.5.5 0 0 1-.5.5h-17a.5.5 0 0 1-.5-.5v-1zM11.5 11.5a.5.5 0 0 0-.5.5v5a.5.5 0 0 0 .5.5h1a.5.5 0 0 0 .5-.5v-5a.5.5 0 0 0-.5-.5h-1zM17 12a.5.5 0 0 1 .5-.5h1a.5.5 0 0 1 .5.5v5a.5.5 0 0 1-.5.5h-1a.5.5 0 0 1-.5-.5v-5z"></path></g></svg>